<svg width="21" height="18" viewBox="0 0 21 18" fill="none" xmlns="http://www.w3.org/2000/svg">
<path d="M20.1553 8.55169C20.1553 7.75384 19.7181 7.06471 19.0748 6.6906V1.52904C19.0748 1.2336 18.8392 0.448242 17.9944 0.448242C17.754 0.448242 17.5153 0.528601 17.3198 0.685268L14.4488 2.98226C13.0067 4.13497 11.1963 4.77008 9.35071 4.77008H2.86795C1.67438 4.77008 0.707031 5.73743 0.707031 6.931V10.1724C0.707031 11.3659 1.67438 12.3333 2.86795 12.3333H4.00581C3.95888 12.6872 3.9322 13.0471 3.9322 13.4138C3.9322 14.7566 4.24486 16.0254 4.79522 17.1596C4.97046 17.5205 5.35301 17.7356 5.75413 17.7356H8.26215C9.14171 17.7356 9.66978 16.7281 9.13664 16.0285C8.58291 15.3019 8.25371 14.3956 8.25371 13.4138C8.25371 13.0386 8.3084 12.678 8.40261 12.3333H9.35071C11.1963 12.3333 13.0067 12.9684 14.4485 14.1211L17.3194 16.4181C17.5109 16.5713 17.7488 16.6549 17.9941 16.6551C18.8355 16.6551 19.0745 15.886 19.0745 15.5747V10.4131C19.7181 10.0387 20.1553 9.34954 20.1553 8.55169ZM16.9139 13.3266L15.798 12.4339C13.9747 10.9753 11.6845 10.1724 9.35071 10.1724V6.931C11.6845 6.931 13.9747 6.12808 15.798 4.66946L16.9139 3.77673V13.3266Z" fill="#92C6FB"/>
</svg>
