<svg width="16" height="18" viewBox="0 0 16 18" fill="none" xmlns="http://www.w3.org/2000/svg">
<path opacity="0.5" d="M0.493164 16.3864C0.493164 17.2704 1.2104 17.9877 2.09443 17.9877H13.8371C14.7211 17.9877 15.4383 17.2704 15.4383 16.3864V7.31255H0.493164V16.3864ZM11.1683 9.84789C11.1683 9.62771 11.3484 9.44757 11.5686 9.44757H12.903C13.1232 9.44757 13.3033 9.62771 13.3033 9.84789V11.1823C13.3033 11.4025 13.1232 11.5826 12.903 11.5826H11.5686C11.3484 11.5826 11.1683 11.4025 11.1683 11.1823V9.84789ZM11.1683 14.1179C11.1683 13.8978 11.3484 13.7176 11.5686 13.7176H12.903C13.1232 13.7176 13.3033 13.8978 13.3033 14.1179V15.4523C13.3033 15.6725 13.1232 15.8526 12.903 15.8526H11.5686C11.3484 15.8526 11.1683 15.6725 11.1683 15.4523V14.1179ZM6.89824 9.84789C6.89824 9.62771 7.07838 9.44757 7.29856 9.44757H8.63295C8.85312 9.44757 9.03326 9.62771 9.03326 9.84789V11.1823C9.03326 11.4025 8.85312 11.5826 8.63295 11.5826H7.29856C7.07838 11.5826 6.89824 11.4025 6.89824 11.1823V9.84789ZM6.89824 14.1179C6.89824 13.8978 7.07838 13.7176 7.29856 13.7176H8.63295C8.85312 13.7176 9.03326 13.8978 9.03326 14.1179V15.4523C9.03326 15.6725 8.85312 15.8526 8.63295 15.8526H7.29856C7.07838 15.8526 6.89824 15.6725 6.89824 15.4523V14.1179ZM2.62819 9.84789C2.62819 9.62771 2.80833 9.44757 3.02851 9.44757H4.3629C4.58307 9.44757 4.76321 9.62771 4.76321 9.84789V11.1823C4.76321 11.4025 4.58307 11.5826 4.3629 11.5826H3.02851C2.80833 11.5826 2.62819 11.4025 2.62819 11.1823V9.84789ZM2.62819 14.1179C2.62819 13.8978 2.80833 13.7176 3.02851 13.7176H4.3629C4.58307 13.7176 4.76321 13.8978 4.76321 14.1179V15.4523C4.76321 15.6725 4.58307 15.8526 4.3629 15.8526H3.02851C2.80833 15.8526 2.62819 15.6725 2.62819 15.4523V14.1179ZM13.8371 3.0425H12.2358V1.44123C12.2358 1.14766 11.9956 0.907471 11.702 0.907471H10.6345C10.341 0.907471 10.1008 1.14766 10.1008 1.44123V3.0425H5.83073V1.44123C5.83073 1.14766 5.59054 0.907471 5.29697 0.907471H4.22946C3.93589 0.907471 3.6957 1.14766 3.6957 1.44123V3.0425H2.09443C1.2104 3.0425 0.493164 3.75973 0.493164 4.64376V6.24503H15.4383V4.64376C15.4383 3.75973 14.7211 3.0425 13.8371 3.0425Z" fill="#258EF7"/>
</svg>
