<svg width="127" height="126" viewBox="0 0 127 126" fill="none" xmlns="http://www.w3.org/2000/svg">
<g filter="url(#filter0_d_460_7567)">
<rect x="15.2036" y="18.415" width="96.2458" height="86.1695" rx="17.3729" fill="#258EF7"/>
<path fill-rule="evenodd" clip-rule="evenodd" d="M63.5 123C29.5328 123 2 95.4672 2 61.5C2 27.5328 29.5328 0 63.5 0C97.4672 0 125 27.5328 125 61.5C125 95.4672 97.4672 123 63.5 123ZM64.5762 89.6555C68.5276 92.3884 73.5399 94.0143 78.9672 94.0143C80.3164 94.0143 81.6502 93.9143 82.9609 93.7183C83.4106 93.9028 83.845 94.1296 84.3792 94.4371C85.5324 95.1136 87.0737 96.1514 88.9917 97.5505C90.5638 98.6998 92.7894 97.589 92.7894 95.6556V90.0398C93.5966 89.5171 94.3576 88.9521 95.0764 88.3409C99.4198 84.6586 101.938 79.6233 101.938 74.2228C101.938 70.6673 100.861 67.3425 98.9701 64.4712C98.3739 66.5102 97.5662 68.4812 96.5601 70.3521C96.9598 71.5937 97.1712 72.889 97.1712 74.2228C97.1712 78.1972 95.2955 81.9488 91.9745 84.7624C91.1177 85.4863 90.195 86.1284 89.2185 86.6804C88.8568 86.8847 88.5556 87.1812 88.3456 87.5397C88.1357 87.8982 88.0244 88.306 88.0231 88.7214V91.1199C85.7438 89.6593 84.1794 88.9713 82.9878 88.9713C82.8538 88.9717 82.7201 88.9832 82.5881 89.0059C79.2486 89.5643 75.8251 89.3407 72.5866 88.3524C69.9637 89.0336 67.2835 89.4711 64.5801 89.6593L64.5762 89.6555ZM35.8788 78.424C37.1463 79.4965 38.4872 80.479 39.8917 81.3645V90.9431C39.8917 93.3647 42.6784 94.7484 44.6426 93.3109C50.0622 89.3518 53.8291 87.1148 54.7708 86.8918C56.9464 87.2378 59.1681 87.4107 61.4128 87.4107C81.4003 87.4107 97.767 73.5463 97.767 56.1995C97.767 38.8488 81.3965 24.9844 61.4128 24.9844C41.4292 24.9844 25.0625 38.8488 25.0625 56.1956C25.0625 64.6903 29.0216 72.6123 35.8788 78.424ZM54.9015 80.984C52.9681 80.984 50.143 82.3485 45.8533 85.2275V79.704C45.8515 79.184 45.7117 78.6739 45.4484 78.2255C45.185 77.7771 44.8075 77.4066 44.3543 77.1517C42.7255 76.23 41.1864 75.1581 39.7572 73.9499C34.1722 69.2259 31.0203 62.9068 31.0203 56.1956C31.0203 42.3197 44.5349 30.873 61.4128 30.873C78.2946 30.873 91.8054 42.3197 91.8054 56.1956C91.8054 70.0716 78.2946 81.5221 61.4128 81.5221C59.3757 81.5221 57.3654 81.353 55.4012 81.0224C55.236 80.9957 55.0689 80.9829 54.9015 80.984ZM45.9187 62.0881C48.5517 62.0881 50.6849 59.974 50.6849 57.3757C50.6849 54.7734 48.5517 52.6632 45.9187 52.6632C43.2857 52.6632 41.1524 54.7734 41.1524 57.3757C41.1524 59.9779 43.2857 62.0881 45.9187 62.0881ZM61.4128 62.0881C64.0458 62.0881 66.1791 59.974 66.1791 57.3757C66.1791 54.7734 64.0458 52.6632 61.4128 52.6632C58.7799 52.6632 56.6466 54.7734 56.6466 57.3757C56.6466 59.9779 58.7799 62.0881 61.4128 62.0881ZM76.907 62.0881C79.54 62.0881 81.6733 59.974 81.6733 57.3757C81.6733 54.7734 79.54 52.6632 76.907 52.6632C74.274 52.6632 72.1407 54.7734 72.1407 57.3757C72.1407 59.9779 74.274 62.0881 76.907 62.0881Z" fill="white"/>
</g>
<defs>
<filter id="filter0_d_460_7567" x="0.61017" y="0" width="125.78" height="125.78" filterUnits="userSpaceOnUse" color-interpolation-filters="sRGB">
<feFlood flood-opacity="0" result="BackgroundImageFix"/>
<feColorMatrix in="SourceAlpha" type="matrix" values="0 0 0 0 0 0 0 0 0 0 0 0 0 0 0 0 0 0 127 0" result="hardAlpha"/>
<feOffset dy="1.38983"/>
<feGaussianBlur stdDeviation="0.694915"/>
<feComposite in2="hardAlpha" operator="out"/>
<feColorMatrix type="matrix" values="0 0 0 0 0 0 0 0 0 0 0 0 0 0 0 0 0 0 0.25 0"/>
<feBlend mode="normal" in2="BackgroundImageFix" result="effect1_dropShadow_460_7567"/>
<feBlend mode="normal" in="SourceGraphic" in2="effect1_dropShadow_460_7567" result="shape"/>
</filter>
</defs>
</svg>
