<svg width="17" height="14" viewBox="0 0 17 14" fill="none" xmlns="http://www.w3.org/2000/svg">
<path d="M10.9725 2.88475L11.4294 2.42791C11.6228 2.23448 11.9356 2.23448 12.127 2.42791L16.1274 6.42628C16.3208 6.61972 16.3208 6.93251 16.1274 7.12389L12.129 11.1223C11.9356 11.3157 11.6228 11.3157 11.4314 11.1223L10.9746 10.6654C10.7791 10.4699 10.7832 10.151 10.9828 9.95958L13.4604 7.59925L6.23023 7.57867C5.95654 7.57867 5.73635 7.35848 5.73635 7.08479L5.73635 6.42628C5.73635 6.15259 5.95654 5.9324 6.23023 5.9324L13.4604 5.95298L10.9807 3.59059C10.7791 3.39921 10.775 3.08025 10.9725 2.88475Z" fill="#40A0FB"/>
<path fill-rule="evenodd" clip-rule="evenodd" d="M8.26465 0.175537L2.36407 0.175537L0.678292 0.175537L0.678292 1.86131L0.678292 11.5545L0.678292 13.2403L2.36407 13.2403L8.26465 13.2403L8.26465 11.5545L2.36407 11.5545L2.36407 1.86131L8.26465 1.86131L8.26465 0.175537Z" fill="#40A0FB"/>
</svg>
