<svg width="37" height="36" viewBox="0 0 37 36" fill="none" xmlns="http://www.w3.org/2000/svg">
<path d="M25.3332 14.5833C27.2201 14.5833 28.7498 13.0536 28.7498 11.1667C28.7498 9.27969 27.2201 7.75 25.3332 7.75C23.4462 7.75 21.9165 9.27969 21.9165 11.1667C21.9165 13.0536 23.4462 14.5833 25.3332 14.5833Z" stroke="#D9D9D9" stroke-width="1.5"/>
<path d="M1.4165 18.8546L4.4095 16.2358C5.1597 15.5799 6.13107 15.2335 7.12699 15.2668C8.12291 15.3001 9.06897 15.7106 9.77367 16.4151L17.1024 23.7439C17.6711 24.3125 18.4222 24.6623 19.2234 24.7316C20.0246 24.801 20.8246 24.5855 21.4826 24.1231L21.9934 23.7644C22.9425 23.0978 24.0897 22.7728 25.2475 22.8426C26.4052 22.9125 27.505 23.3729 28.3672 24.1488L33.8748 29.1046" stroke="#D9D9D9" stroke-width="1.5" stroke-linecap="round"/>
<path d="M35.5832 18.0003C35.5832 26.0534 35.5832 30.08 33.0805 32.581C30.5812 35.0837 26.5529 35.0837 18.4998 35.0837C10.4468 35.0837 6.42021 35.0837 3.9175 32.581C1.4165 30.0817 1.4165 26.0534 1.4165 18.0003C1.4165 9.94724 1.4165 5.9207 3.9175 3.41799C6.42192 0.916992 10.4468 0.916992 18.4998 0.916992C26.5529 0.916992 30.5795 0.916992 33.0805 3.41799C34.7444 5.08191 35.3013 7.42062 35.4892 11.167" stroke="#D9D9D9" stroke-width="1.5" stroke-linecap="round"/>
</svg>
