<svg width="24" height="23" viewBox="0 0 25 24" fill="none" xmlns="http://www.w3.org/2000/svg">
<mask id="mask0_460_5234" style="mask-type:alpha" maskUnits="userSpaceOnUse" x="0" y="0" width="25" height="24">
<rect x="0.5" width="24" height="24" fill="#D9D9D9"/>
</mask>
<g mask="url(#mask0_460_5234)">
<path d="M6.1498 9.58706L8.0998 10.4685C8.33314 9.96989 8.5748 9.48913 8.8248 9.02617C9.0748 8.56321 9.3498 8.10026 9.6498 7.6373L8.2498 7.3435L6.1498 9.58706ZM9.6998 11.8039L12.5498 14.822C13.2498 14.5371 13.9998 14.1009 14.7998 13.5133C15.5998 12.9257 16.3498 12.258 17.0498 11.5101C18.2165 10.2637 19.129 8.87927 19.7873 7.35686C20.4456 5.83445 20.7331 4.43222 20.6498 3.15019C19.4498 3.06116 18.1331 3.36832 16.6998 4.07165C15.2665 4.77499 13.9665 5.74987 12.7998 6.99629C12.0998 7.74414 11.4748 8.54541 10.9248 9.40009C10.3748 10.2548 9.96647 11.0561 9.6998 11.8039ZM14.1498 10.0678C13.7665 9.65828 13.5748 9.15526 13.5748 8.55876C13.5748 7.96226 13.7665 7.45924 14.1498 7.04971C14.5331 6.64017 15.0081 6.4354 15.5748 6.4354C16.1415 6.4354 16.6165 6.64017 16.9998 7.04971C17.3831 7.45924 17.5748 7.96226 17.5748 8.55876C17.5748 9.15526 17.3831 9.65828 16.9998 10.0678C16.6165 10.4774 16.1415 10.6821 15.5748 10.6821C15.0081 10.6821 14.5331 10.4774 14.1498 10.0678ZM14.6248 18.6414L16.7248 16.3978L16.4498 14.9021C16.0165 15.2227 15.5831 15.512 15.1498 15.7702C14.7165 16.0284 14.2665 16.2821 13.7998 16.5314L14.6248 18.6414ZM22.4498 1.20044C22.7665 3.35496 22.5706 5.45162 21.8623 7.4904C21.154 9.52919 19.9331 11.4745 18.1998 13.3263L18.6998 15.9705C18.7665 16.3266 18.7498 16.6738 18.6498 17.0122C18.5498 17.3505 18.3831 17.6443 18.1498 17.8936L13.9498 22.3807L11.8498 17.119L7.5748 12.5518L2.6498 10.3082L6.8248 5.82109C7.05814 5.57181 7.33731 5.39375 7.6623 5.28691C7.9873 5.18008 8.31647 5.16227 8.6498 5.23349L11.1248 5.76767C12.8581 3.91585 14.6748 2.60711 16.5748 1.84145C18.4748 1.0758 20.4331 0.862123 22.4498 1.20044ZM4.4248 15.9438C5.00814 15.3206 5.72064 15.0045 6.5623 14.9956C7.40397 14.9867 8.11647 15.2939 8.6998 15.9171C9.28314 16.5403 9.57064 17.3015 9.5623 18.2007C9.55397 19.0999 9.25814 19.8611 8.6748 20.4843C8.25814 20.9295 7.5623 21.3123 6.5873 21.6328C5.6123 21.9533 4.26647 22.2382 2.5498 22.4875C2.78314 20.6535 3.0498 19.2156 3.3498 18.174C3.6498 17.1323 4.00814 16.3889 4.4248 15.9438ZM5.8498 17.4395C5.68314 17.6176 5.51647 17.9425 5.3498 18.4144C5.18314 18.8862 5.06647 19.3625 4.9998 19.8433C5.4498 19.7721 5.89564 19.6519 6.3373 19.4827C6.77897 19.3136 7.08314 19.14 7.2498 18.9619C7.4498 18.7482 7.55814 18.4901 7.5748 18.1874C7.59147 17.8846 7.4998 17.6265 7.2998 17.4128C7.0998 17.1991 6.85814 17.0967 6.5748 17.1056C6.29147 17.1145 6.0498 17.2258 5.8498 17.4395Z" fill="#D9D9D9"/>
</g>
</svg>
