<svg width="24" height="23" viewBox="0 0 28 24" fill="none" xmlns="http://www.w3.org/2000/svg">
<g clip-path="url(#clip0_460_5224)">
<path d="M12.2479 4.82702C12.6979 4.82698 13.1434 4.90458 13.5591 5.0554C13.9748 5.20623 14.3526 5.42731 14.6707 5.70602L22.0748 12.191C22.3929 12.4696 22.6453 12.8003 22.8174 13.1644C22.9896 13.5284 23.0782 13.9185 23.0782 14.3125C23.0782 14.7065 22.9896 15.0967 22.8174 15.4607C22.6453 15.8247 22.3929 16.1554 22.0748 16.434L17.2304 20.676C16.5881 21.2384 15.7171 21.5544 14.8088 21.5544C13.9006 21.5544 13.0295 21.2384 12.3872 20.676L4.98193 14.191C4.33996 13.6284 3.97938 12.8655 3.97949 12.07V7.32702C3.97949 6.66398 4.28022 6.0281 4.81551 5.55926C5.3508 5.09042 6.07681 4.82702 6.83382 4.82702H12.2479ZM11.5789 9.36302C11.4221 9.21565 11.233 9.09745 11.0229 9.01546C10.8128 8.93348 10.5861 8.88939 10.3561 8.88584C10.1262 8.88229 9.89775 8.91934 9.68451 8.99478C9.47126 9.07022 9.27754 9.18251 9.11492 9.32495C8.95229 9.46738 8.82409 9.63705 8.73795 9.82383C8.65182 10.0106 8.60952 10.2107 8.61357 10.4121C8.61763 10.6135 8.66796 10.8121 8.76157 10.9961C8.85517 11.1801 8.99013 11.3457 9.15839 11.483C9.48304 11.748 9.91244 11.8922 10.3561 11.8854C10.7998 11.8785 11.2231 11.7211 11.5369 11.4463C11.8507 11.1714 12.0304 10.8007 12.0382 10.4121C12.0461 10.0235 11.8814 9.64737 11.5789 9.36302ZM13.8623 1.99902C14.6927 1.99887 15.4948 2.26291 16.1195 2.74202L16.2851 2.87702L24.4964 10.07C24.7012 10.25 24.8201 10.4915 24.8289 10.7454C24.8378 10.9994 24.7359 11.2467 24.5441 11.4373C24.3522 11.6279 24.0848 11.7473 23.796 11.7714C23.5072 11.7955 23.2188 11.7224 22.9893 11.567L22.882 11.484L14.6707 4.29002C14.4931 4.1346 14.2619 4.03479 14.013 4.00602L13.8623 4.00002H8.55099C8.25821 4.00205 7.97573 3.90548 7.76193 3.73028C7.54813 3.55508 7.41934 3.31463 7.40219 3.05863C7.38504 2.80263 7.48084 2.55064 7.66978 2.35474C7.85872 2.15884 8.12636 2.034 8.41741 2.00602L8.55099 2.00002H13.8623V1.99902Z" fill="#D9D9D9"/>
</g>
<defs>
<clipPath id="clip0_460_5224">
<rect width="27.4016" height="24" fill="white" transform="translate(0.558594)"/>
</clipPath>
</defs>
</svg>
