<svg width="24" height="23" viewBox="0 0 25 26" fill="none" xmlns="http://www.w3.org/2000/svg">
<path d="M21.5567 2.14313L21.6627 2.13672L21.7927 2.14527L21.8827 2.16236L22.0057 2.19975L22.1127 2.2489L22.2127 2.30979L22.3027 2.38137L22.3847 2.4615L22.4367 2.52453L22.5187 2.64846L22.5707 2.75103C22.6177 2.85786 22.6477 2.97111 22.6607 3.08863L22.6657 3.20187C22.6657 3.282 22.6577 3.36106 22.6417 3.43691L22.6067 3.56832L16.0747 22.8811C15.9509 23.169 15.7523 23.413 15.5025 23.584C15.2528 23.755 14.9623 23.8459 14.6657 23.8458C14.3985 23.8467 14.1357 23.7737 13.9028 23.6338C13.6699 23.4939 13.4749 23.292 13.3367 23.0477L13.2717 22.912L9.9197 15.7519L3.2497 12.1878C3.0029 12.0673 2.79007 11.8796 2.63248 11.6435C2.47489 11.4075 2.37807 11.1313 2.3517 10.8428L2.3457 10.6836C2.3457 10.0853 2.6467 9.53831 3.1867 9.21994L3.3267 9.14516L21.3437 2.19441L21.4497 2.16236L21.5567 2.14313Z" fill="#D9D9D9"/>
</svg>
