<svg width="24" height="24" viewBox="0 0 24 24" fill="none" xmlns="http://www.w3.org/2000/svg">
<path d="M20.8907 2.14313L20.9967 2.13672L21.1267 2.14527L21.2167 2.16236L21.3397 2.19975L21.4467 2.2489L21.5467 2.30979L21.6367 2.38137L21.7187 2.4615L21.7707 2.52453L21.8527 2.64846L21.9047 2.75103C21.9517 2.85786 21.9817 2.97111 21.9947 3.08863L21.9997 3.20187C21.9997 3.282 21.9917 3.36106 21.9757 3.43691L21.9407 3.56832L15.4087 22.8811C15.2849 23.169 15.0863 23.413 14.8365 23.584C14.5868 23.755 14.2963 23.8459 13.9997 23.8458C13.7325 23.8467 13.4697 23.7737 13.2368 23.6338C13.0039 23.4939 12.8088 23.292 12.6707 23.0477L12.6057 22.912L9.25369 15.7519L2.58369 12.1878C2.33689 12.0673 2.12405 11.8796 1.96646 11.6435C1.80887 11.4075 1.71205 11.1313 1.68569 10.8428L1.67969 10.6836C1.67969 10.0853 1.98069 9.53831 2.52069 9.21994L2.66069 9.14516L20.6777 2.19441L20.7837 2.16236L20.8907 2.14313Z" fill="#40A0FB"/>
</svg>
