<svg width="24" height="24" viewBox="0 0 20 21" fill="none" xmlns="http://www.w3.org/2000/svg">
<g clip-path="url(#clip0_460_5366)">
<path d="M10 20.1123C7.34784 20.1123 4.8043 19.0587 2.92893 17.1834C1.05357 15.308 0 12.7645 0 10.1123C0 7.46014 1.05357 4.9166 2.92893 3.04124C4.8043 1.16587 7.34784 0.112305 10 0.112305C12.6522 0.112305 15.1957 1.16587 17.0711 3.04124C18.9464 4.9166 20 7.46014 20 10.1123C20 12.7645 18.9464 15.308 17.0711 17.1834C15.1957 19.0587 12.6522 20.1123 10 20.1123ZM15 9.1123H5V11.1123H15V9.1123Z" fill="#D9D9D9"/>
</g>
<defs>
<clipPath id="clip0_460_5366">
<rect width="20" height="20" fill="white" transform="translate(0 0.112305)"/>
</clipPath>
</defs>
</svg>
