<svg width="24" height="25" viewBox="0 0 24 25" fill="none" xmlns="http://www.w3.org/2000/svg">
<path d="M23.5 12.4023C23.5 18.7813 18.3494 23.9492 12 23.9492C5.65056 23.9492 0.5 18.7813 0.5 12.4023C0.5 6.02334 5.65056 0.855469 12 0.855469C18.3494 0.855469 23.5 6.02334 23.5 12.4023Z" fill="white" stroke="#40A0FB"/>
<path d="M9.94187 16.3169L15.75 10.5088L12.9913 7.75002L7.18313 13.5581C7.10316 13.6382 7.04637 13.7384 7.01875 13.8481L6.375 17.125L9.65125 16.4813C9.76125 16.4538 9.86187 16.3969 9.94187 16.3169ZM17.625 8.63377C17.8593 8.39936 17.991 8.08147 17.991 7.75002C17.991 7.41856 17.8593 7.10068 17.625 6.86627L16.6337 5.87502C16.3993 5.64068 16.0815 5.50903 15.75 5.50903C15.4185 5.50903 15.1007 5.64068 14.8663 5.87502L13.875 6.86627L16.6337 9.62502L17.625 8.63377Z" fill="#40A0FB"/>
</svg>
