<svg width="216" height="216" viewBox="0 0 216 216" fill="none" xmlns="http://www.w3.org/2000/svg">
<circle cx="108" cy="108" r="108" fill="#EEEEEE"/>
<path d="M108 113.875C122.596 113.875 134.438 102.033 134.438 87.4375C134.438 72.8418 122.596 61 108 61C93.4043 61 81.5625 72.8418 81.5625 87.4375C81.5625 102.033 93.4043 113.875 108 113.875ZM131.5 119.75H121.384C117.308 121.623 112.773 122.688 108 122.688C103.227 122.688 98.7102 121.623 94.616 119.75H84.5C71.5199 119.75 61 130.27 61 143.25V146.188C61 151.053 64.9473 155 69.8125 155H146.188C151.053 155 155 151.053 155 146.188V143.25C155 130.27 144.48 119.75 131.5 119.75Z" fill="white"/>
</svg>
