<svg width="36" height="36" viewBox="0 0 36 36" fill="none" xmlns="http://www.w3.org/2000/svg">
<mask id="mask0_511_5318" style="mask-type:alpha" maskUnits="userSpaceOnUse" x="0" y="0" width="36" height="36">
<rect width="36" height="36" fill="#D9D9D9"/>
</mask>
<g mask="url(#mask0_511_5318)">
<path d="M8.47422 15.0373L11.3992 16.2748C11.7492 15.5748 12.1117 14.8998 12.4867 14.2498C12.8617 13.5998 13.2742 12.9498 13.7242 12.2998L11.6242 11.8873L8.47422 15.0373ZM13.7992 18.1498L18.0742 22.3873C19.1242 21.9873 20.2492 21.3748 21.4492 20.5498C22.6492 19.7248 23.7742 18.7873 24.8242 17.7373C26.5742 15.9873 27.943 14.0435 28.9305 11.906C29.918 9.76854 30.3492 7.79979 30.2242 5.99979C28.4242 5.87479 26.4492 6.30604 24.2992 7.29354C22.1492 8.28104 20.1992 9.64979 18.4492 11.3998C17.3992 12.4498 16.4617 13.5748 15.6367 14.7748C14.8117 15.9748 14.1992 17.0998 13.7992 18.1498ZM20.4742 15.7123C19.8992 15.1373 19.6117 14.431 19.6117 13.5935C19.6117 12.756 19.8992 12.0498 20.4742 11.4748C21.0492 10.8998 21.7617 10.6123 22.6117 10.6123C23.4617 10.6123 24.1742 10.8998 24.7492 11.4748C25.3242 12.0498 25.6117 12.756 25.6117 13.5935C25.6117 14.431 25.3242 15.1373 24.7492 15.7123C24.1742 16.2873 23.4617 16.5748 22.6117 16.5748C21.7617 16.5748 21.0492 16.2873 20.4742 15.7123ZM21.1867 27.7498L24.3367 24.5998L23.9242 22.4998C23.2742 22.9498 22.6242 23.356 21.9742 23.7185C21.3242 24.081 20.6492 24.4373 19.9492 24.7873L21.1867 27.7498ZM32.9242 3.26229C33.3992 6.28729 33.1055 9.23104 32.043 12.0935C30.9805 14.956 29.1492 17.6873 26.5492 20.2873L27.2992 23.9998C27.3992 24.4998 27.3742 24.9873 27.2242 25.4623C27.0742 25.9373 26.8242 26.3498 26.4742 26.6998L20.1742 32.9998L17.0242 25.6123L10.6117 19.1998L3.22422 16.0498L9.48672 9.74979C9.83672 9.39979 10.2555 9.14979 10.743 8.99979C11.2305 8.84979 11.7242 8.82479 12.2242 8.92479L15.9367 9.67479C18.5367 7.07479 21.2617 5.23729 24.1117 4.16229C26.9617 3.08729 29.8992 2.78729 32.9242 3.26229ZM5.88672 23.9623C6.76172 23.0873 7.83047 22.6435 9.09297 22.631C10.3555 22.6185 11.4242 23.0498 12.2992 23.9248C13.1742 24.7998 13.6055 25.8685 13.593 27.131C13.5805 28.3935 13.1367 29.4623 12.2617 30.3373C11.6367 30.9623 10.593 31.4998 9.13047 31.9498C7.66797 32.3998 5.64922 32.7998 3.07422 33.1498C3.42422 30.5748 3.82422 28.556 4.27422 27.0935C4.72422 25.631 5.26172 24.5873 5.88672 23.9623ZM8.02422 26.0623C7.77422 26.3123 7.52422 26.7685 7.27422 27.431C7.02422 28.0935 6.84922 28.7623 6.74922 29.4373C7.42422 29.3373 8.09297 29.1685 8.75547 28.931C9.41797 28.6935 9.87422 28.4498 10.1242 28.1998C10.4242 27.8998 10.5867 27.5373 10.6117 27.1123C10.6367 26.6873 10.4992 26.3248 10.1992 26.0248C9.89922 25.7248 9.53672 25.581 9.11172 25.5935C8.68672 25.606 8.32422 25.7623 8.02422 26.0623Z" fill="white"/>
</g>
</svg>
