<svg width="31" height="31" viewBox="0 0 31 31" fill="none" xmlns="http://www.w3.org/2000/svg">
<path d="M5.47422 12.0378L8.39922 13.2753C8.74922 12.5753 9.11172 11.9003 9.48672 11.2503C9.86172 10.6003 10.2742 9.95028 10.7242 9.30028L8.62422 8.88778L5.47422 12.0378ZM10.7992 15.1503L15.0742 19.3878C16.1242 18.9878 17.2492 18.3753 18.4492 17.5503C19.6492 16.7253 20.7742 15.7878 21.8242 14.7378C23.5742 12.9878 24.943 11.044 25.9305 8.90653C26.918 6.76903 27.3492 4.80028 27.2242 3.00028C25.4242 2.87528 23.4492 3.30653 21.2992 4.29403C19.1492 5.28153 17.1992 6.65028 15.4492 8.40028C14.3992 9.45028 13.4617 10.5753 12.6367 11.7753C11.8117 12.9753 11.1992 14.1003 10.7992 15.1503ZM17.4742 12.7128C16.8992 12.1378 16.6117 11.4315 16.6117 10.594C16.6117 9.75653 16.8992 9.05028 17.4742 8.47528C18.0492 7.90028 18.7617 7.61278 19.6117 7.61278C20.4617 7.61278 21.1742 7.90028 21.7492 8.47528C22.3242 9.05028 22.6117 9.75653 22.6117 10.594C22.6117 11.4315 22.3242 12.1378 21.7492 12.7128C21.1742 13.2878 20.4617 13.5753 19.6117 13.5753C18.7617 13.5753 18.0492 13.2878 17.4742 12.7128ZM18.1867 24.7503L21.3367 21.6003L20.9242 19.5003C20.2742 19.9503 19.6242 20.3565 18.9742 20.719C18.3242 21.0815 17.6492 21.4378 16.9492 21.7878L18.1867 24.7503ZM29.9242 0.26278C30.3992 3.28778 30.1055 6.23153 29.043 9.09403C27.9805 11.9565 26.1492 14.6878 23.5492 17.2878L24.2992 21.0003C24.3992 21.5003 24.3742 21.9878 24.2242 22.4628C24.0742 22.9378 23.8242 23.3503 23.4742 23.7003L17.1742 30.0003L14.0242 22.6128L7.61172 16.2003L0.224219 13.0503L6.48672 6.75028C6.83672 6.40028 7.25547 6.15028 7.74297 6.00028C8.23047 5.85028 8.72422 5.82528 9.22422 5.92528L12.9367 6.67528C15.5367 4.07528 18.2617 2.23778 21.1117 1.16278C23.9617 0.0877804 26.8992 -0.21222 29.9242 0.26278ZM2.88672 20.9628C3.76172 20.0878 4.83047 19.644 6.09297 19.6315C7.35547 19.619 8.42422 20.0503 9.29922 20.9253C10.1742 21.8003 10.6055 22.869 10.593 24.1315C10.5805 25.394 10.1367 26.4628 9.26172 27.3378C8.63672 27.9628 7.59297 28.5003 6.13047 28.9503C4.66797 29.4003 2.64922 29.8003 0.0742188 30.1503C0.424219 27.5753 0.824219 25.5565 1.27422 24.094C1.72422 22.6315 2.26172 21.5878 2.88672 20.9628ZM5.02422 23.0628C4.77422 23.3128 4.52422 23.769 4.27422 24.4315C4.02422 25.094 3.84922 25.7628 3.74922 26.4378C4.42422 26.3378 5.09297 26.169 5.75547 25.9315C6.41797 25.694 6.87422 25.4503 7.12422 25.2003C7.42422 24.9003 7.58672 24.5378 7.61172 24.1128C7.63672 23.6878 7.49922 23.3253 7.19922 23.0253C6.89922 22.7253 6.53672 22.5815 6.11172 22.594C5.68672 22.6065 5.32422 22.7628 5.02422 23.0628Z" fill="white"/>
</svg>
