<svg width="21" height="17" viewBox="0 0 21 17" fill="none" xmlns="http://www.w3.org/2000/svg">
<path d="M20.7118 2.72336C20.1775 1.81772 18.7642 0.968733 15.1094 1.91437C13.8895 1.08617 12.4627 0.60206 10.9833 0.514444C9.50389 0.426828 8.02832 0.739047 6.71632 1.4173C5.40433 2.09555 4.3059 3.11399 3.53996 4.36235C2.77402 5.61072 2.36975 7.04145 2.37093 8.49964C2.37093 8.6996 2.37827 8.89789 2.39294 9.09451C-0.29142 11.7373 -0.245692 13.3653 0.29118 14.2759C0.795875 15.1324 1.80357 15.4982 3.10595 15.4982C3.93497 15.4982 4.88424 15.3499 5.89616 15.0891C7.11625 15.9161 8.54298 16.3991 10.022 16.4858C11.501 16.5726 12.9759 16.2597 14.2872 15.5811C15.5985 14.9025 16.6962 13.8841 17.4616 12.6359C18.227 11.3877 18.6308 9.95738 18.6295 8.49964C18.6295 8.29885 18.6219 8.10056 18.6067 7.9031C19.8184 6.70502 20.6271 5.55276 20.893 4.57047C21.1318 3.70232 20.9261 3.08412 20.7118 2.72336ZM10.5002 2.50091C11.8812 2.50274 13.2207 2.96509 14.3002 3.81246C15.3797 4.65984 16.1354 5.84222 16.4439 7.16659C15.2423 8.2272 13.6334 9.38195 11.679 10.4876C9.83803 11.5282 7.99115 12.3505 6.3365 12.8745C5.44545 12.0521 4.82609 10.9852 4.55875 9.81224C4.29141 8.63928 4.38841 7.41434 4.83717 6.29628C5.28594 5.17821 6.06577 4.21858 7.07554 3.54183C8.08531 2.86509 9.27845 2.50244 10.5002 2.50091ZM2.0483 13.2728C1.99664 13.1837 2.0339 12.5879 2.95183 11.464C3.23695 12.1643 3.62156 12.8212 4.09417 13.4153C2.63513 13.6327 2.10418 13.3661 2.0483 13.2728ZM10.5002 14.4984C9.85105 14.4985 9.20605 14.3961 8.58984 14.1951C10.0008 13.63 11.3707 12.9706 12.6901 12.2214C14.0045 11.4838 15.2655 10.6579 16.4643 9.74938C16.1716 11.0924 15.42 12.2963 14.3348 13.1604C13.2496 14.0245 11.8963 14.4967 10.5002 14.4984ZM18.9318 4.05475C18.8234 4.453 18.5245 4.96039 18.052 5.53777C17.7669 4.83655 17.382 4.17873 16.9088 3.58401C18.2493 3.38655 18.8709 3.58401 18.9539 3.72648C18.9683 3.75064 18.986 3.85729 18.9318 4.05475Z" fill="#40A0FB"/>
</svg>
