<svg width="31" height="30" viewBox="0 0 31 30" fill="none" xmlns="http://www.w3.org/2000/svg">
<path d="M17.409 27.5414L15.9084 29.042C15.273 29.6774 14.2455 29.6774 13.6169 29.042L0.476541 15.9084C-0.158847 15.273 -0.158847 14.2455 0.476541 13.6169L13.6169 0.476541C14.2523 -0.158847 15.2797 -0.158847 15.9084 0.476541L17.409 1.97714C18.0511 2.61929 18.0376 3.667 17.3819 4.29563L9.23679 12.0555H28.6634C29.5625 12.0555 30.2857 12.7787 30.2857 13.6777V15.8408C30.2857 16.7398 29.5625 17.463 28.6634 17.463H9.23679L17.3819 25.2229C18.0444 25.8515 18.0579 26.8992 17.409 27.5414Z" fill="white"/>
</svg>
