<svg width="774" height="71" viewBox="0 0 774 71" fill="none" xmlns="http://www.w3.org/2000/svg">
<g filter="url(#filter0_d_460_5184)">
<path d="M48.158 64.6499L31.7849 39.8906C29.8148 40.21 27.6584 40.3698 25.3155 40.3698H6.62624V64.6499H3.19188V1.55354H25.3155C30.5336 1.55354 35.0329 2.35223 38.8134 3.94961C42.6471 5.54698 45.549 7.80993 47.5191 10.7385C49.5424 13.6137 50.5541 17.0215 50.5541 20.9617C50.5541 25.4876 49.2229 29.3479 46.5606 32.5426C43.9516 35.6841 40.1978 37.8938 35.2991 39.1717L52.2313 64.6499H48.158ZM24.6766 37.175C31.705 37.175 37.1894 35.7906 41.1296 33.0219C45.123 30.1998 47.1197 26.1798 47.1197 20.9617C47.1197 15.7436 45.123 11.7501 41.1296 8.98135C37.1894 6.15931 31.705 4.7483 24.6766 4.7483H6.62624V37.175H24.6766ZM105.167 46.2801H70.0252L62.1981 64.6499H58.4442L85.5198 1.55354H89.5931L116.669 64.6499H112.995L105.167 46.2801ZM103.73 43.0853L87.5964 5.30738L71.4629 43.0853H103.73ZM126.817 1.55354H131.13L174.978 60.1772V1.55354H178.412V64.6499H174.099L130.251 6.0262V64.6499H126.817V1.55354ZM193.894 1.55354H214.58C221.928 1.55354 228.185 2.85807 233.349 5.46712C238.568 8.07616 242.508 11.7768 245.17 16.5689C247.886 21.3078 249.243 26.8453 249.243 33.1816C249.243 39.5178 247.886 45.0554 245.17 49.7943C242.508 54.5332 238.568 58.1805 233.349 60.7363C228.185 63.3454 221.928 64.6499 214.58 64.6499H193.894V1.55354ZM214.82 61.4551C221.209 61.4551 226.72 60.3636 231.353 58.1805C236.038 55.9442 239.606 52.7228 242.055 48.5164C244.558 44.2567 245.809 39.1451 245.809 33.1816C245.809 27.2181 244.558 22.1065 242.055 17.8468C239.606 13.5871 236.038 10.3391 231.353 8.10279C226.72 5.86646 221.209 4.7483 214.82 4.7483H197.329V61.4551H214.82ZM292.014 66.0077C285.838 66.0077 280.274 64.57 275.322 61.6948C270.37 58.8727 266.483 54.9591 263.661 49.954C260.839 44.9489 259.428 39.3315 259.428 33.1017C259.428 26.872 260.812 21.2545 263.581 16.2494C266.403 11.2443 270.29 7.33072 275.242 4.50869C280.194 1.63341 285.758 0.195776 291.934 0.195776C298.111 0.195776 303.675 1.63341 308.627 4.50869C313.632 7.33072 317.546 11.2443 320.368 16.2494C323.19 21.2545 324.601 26.872 324.601 33.1017C324.601 39.3315 323.19 44.9489 320.368 49.954C317.546 54.9591 313.659 58.8727 308.707 61.6948C303.755 64.57 298.191 66.0077 292.014 66.0077ZM292.014 62.8129C297.552 62.8129 302.53 61.535 306.95 58.9792C311.369 56.4234 314.83 52.8826 317.333 48.3567C319.889 43.8308 321.166 38.7458 321.166 33.1017C321.166 27.4044 319.889 22.2928 317.333 17.7669C314.83 13.241 311.343 9.72679 306.87 7.22423C302.45 4.66843 297.472 3.39053 291.934 3.39053C286.397 3.39053 281.418 4.66843 276.999 7.22423C272.58 9.72679 269.119 13.241 266.616 17.7669C264.113 22.2928 262.862 27.4044 262.862 33.1017C262.862 38.7458 264.113 43.8308 266.616 48.3567C269.172 52.8826 272.659 56.4234 277.079 58.9792C281.498 61.535 286.477 62.8129 292.014 62.8129ZM337.486 1.55354H341.4L367.916 50.4333L394.433 1.55354H398.267V64.6499H394.832V7.70344L369.833 53.7877H365.92L340.921 7.70344V64.6499H337.486V1.55354ZM484.473 4.7483H460.113V64.6499H456.679V4.7483H432.239V1.55354H484.473V4.7483ZM541.02 64.6499L524.647 39.8906C522.677 40.21 520.521 40.3698 518.178 40.3698H499.488V64.6499H496.054V1.55354H518.178C523.396 1.55354 527.895 2.35223 531.676 3.94961C535.509 5.54698 538.411 7.80993 540.381 10.7385C542.405 13.6137 543.416 17.0215 543.416 20.9617C543.416 25.4876 542.085 29.3479 539.423 32.5426C536.814 35.6841 533.06 37.8938 528.161 39.1717L545.094 64.6499H541.02ZM517.539 37.175C524.567 37.175 530.052 35.7906 533.992 33.0219C537.985 30.1998 539.982 26.1798 539.982 20.9617C539.982 15.7436 537.985 11.7501 533.992 8.98135C530.052 6.15931 524.567 4.7483 517.539 4.7483H499.488V37.175H517.539ZM598.03 46.2801H562.887L555.06 64.6499H551.306L578.382 1.55354H582.455L609.531 64.6499H605.857L598.03 46.2801ZM596.592 43.0853L580.459 5.30738L564.325 43.0853H596.592ZM663.945 1.55354L635.752 64.6499H631.998L603.804 1.55354H607.558L633.915 60.7363L660.271 1.55354H663.945ZM674.355 1.55354H717.404V4.7483H677.789V30.8654H714.609V34.0601H677.789V61.4551H718.123V64.6499H674.355V1.55354ZM733.869 1.55354V61.4551H771.088V64.6499H730.435V1.55354H733.869Z" fill="white"/>
</g>
<defs>
<filter id="filter0_d_460_5184" x="0.733905" y="0.195801" width="772.811" height="70.727" filterUnits="userSpaceOnUse" color-interpolation-filters="sRGB">
<feFlood flood-opacity="0" result="BackgroundImageFix"/>
<feColorMatrix in="SourceAlpha" type="matrix" values="0 0 0 0 0 0 0 0 0 0 0 0 0 0 0 0 0 0 127 0" result="hardAlpha"/>
<feOffset dy="2.4575"/>
<feGaussianBlur stdDeviation="1.22875"/>
<feComposite in2="hardAlpha" operator="out"/>
<feColorMatrix type="matrix" values="0 0 0 0 0 0 0 0 0 0 0 0 0 0 0 0 0 0 0.25 0"/>
<feBlend mode="normal" in2="BackgroundImageFix" result="effect1_dropShadow_460_5184"/>
<feBlend mode="normal" in="SourceGraphic" in2="effect1_dropShadow_460_5184" result="shape"/>
</filter>
</defs>
</svg>
