<svg width="27" height="12" viewBox="0 0 27 12" fill="none" xmlns="http://www.w3.org/2000/svg">
<path d="M20.1973 1.03549L20.7801 0.452665C21.0269 0.205883 21.4259 0.205883 21.6701 0.452665L26.7737 5.5537C27.0205 5.80048 27.0205 6.19953 26.7737 6.44369L21.6701 11.5474C21.4233 11.7941 21.0242 11.7941 20.7801 11.5474L20.1973 10.9645C19.9478 10.7151 19.9531 10.3082 20.2078 10.064L23.3713 7.05014H0.671097C0.321927 7.05014 0.0410156 6.76923 0.0410156 6.42006V5.57995C0.0410156 5.23078 0.321927 4.94987 0.671097 4.94987H23.3713L20.2078 1.93598C19.9505 1.69182 19.9452 1.2849 20.1973 1.03549Z" fill="white"/>
</svg>
