<svg width="21" height="22" viewBox="0 0 21 22" fill="none" xmlns="http://www.w3.org/2000/svg">
<path d="M3.6498 8.58706L5.5998 9.46845C5.83314 8.96989 6.0748 8.48913 6.3248 8.02617C6.5748 7.56321 6.8498 7.10026 7.1498 6.6373L5.7498 6.3435L3.6498 8.58706ZM7.1998 10.8039L10.0498 13.822C10.7498 13.5371 11.4998 13.1009 12.2998 12.5133C13.0998 11.9257 13.8498 11.258 14.5498 10.5101C15.7165 9.26369 16.629 7.87927 17.2873 6.35686C17.9456 4.83445 18.2331 3.43222 18.1498 2.15019C16.9498 2.06116 15.6331 2.36832 14.1998 3.07165C12.7665 3.77499 11.4665 4.74987 10.2998 5.99629C9.5998 6.74414 8.9748 7.54541 8.4248 8.40009C7.8748 9.25478 7.46647 10.0561 7.1998 10.8039ZM11.6498 9.06782C11.2665 8.65828 11.0748 8.15526 11.0748 7.55876C11.0748 6.96226 11.2665 6.45924 11.6498 6.04971C12.0331 5.64017 12.5081 5.4354 13.0748 5.4354C13.6415 5.4354 14.1165 5.64017 14.4998 6.04971C14.8831 6.45924 15.0748 6.96226 15.0748 7.55876C15.0748 8.15526 14.8831 8.65828 14.4998 9.06782C14.1165 9.47736 13.6415 9.68213 13.0748 9.68213C12.5081 9.68213 12.0331 9.47736 11.6498 9.06782ZM12.1248 17.6414L14.2248 15.3978L13.9498 13.9021C13.5165 14.2227 13.0831 14.512 12.6498 14.7702C12.2165 15.0284 11.7665 15.2821 11.2998 15.5314L12.1248 17.6414ZM19.9498 0.200437C20.2665 2.35496 20.0706 4.45162 19.3623 6.4904C18.654 8.52919 17.4331 10.4745 15.6998 12.3263L16.1998 14.9705C16.2665 15.3266 16.2498 15.6738 16.1498 16.0122C16.0498 16.3505 15.8831 16.6443 15.6498 16.8936L11.4498 21.3807L9.3498 16.119L5.0748 11.5518L0.149805 9.3082L4.3248 4.82109C4.55814 4.57181 4.83731 4.39375 5.1623 4.28691C5.4873 4.18008 5.81647 4.16227 6.1498 4.23349L8.6248 4.76767C10.3581 2.91585 12.1748 1.60711 14.0748 0.841453C15.9748 0.0757952 17.9331 -0.137877 19.9498 0.200437ZM1.9248 14.9438C2.50814 14.3206 3.22064 14.0045 4.0623 13.9956C4.90397 13.9867 5.61647 14.2939 6.1998 14.9171C6.78314 15.5403 7.07064 16.3015 7.0623 17.2007C7.05397 18.0999 6.75814 18.8611 6.1748 19.4843C5.75814 19.9295 5.0623 20.3123 4.0873 20.6328C3.1123 20.9533 1.76647 21.2382 0.0498047 21.4875C0.283138 19.6535 0.549805 18.2156 0.849805 17.174C1.1498 16.1323 1.50814 15.3889 1.9248 14.9438ZM3.3498 16.4395C3.18314 16.6176 3.01647 16.9425 2.8498 17.4144C2.68314 17.8862 2.56647 18.3625 2.4998 18.8433C2.9498 18.7721 3.39564 18.6519 3.8373 18.4827C4.27897 18.3136 4.58314 18.14 4.7498 17.9619C4.9498 17.7482 5.05814 17.4901 5.0748 17.1874C5.09147 16.8846 4.9998 16.6265 4.7998 16.4128C4.5998 16.1991 4.35814 16.0967 4.0748 16.1056C3.79147 16.1145 3.5498 16.2258 3.3498 16.4395Z" fill="#40A0FB"/>
</svg>
