<svg width="26" height="27" viewBox="0 0 26 27" fill="none" xmlns="http://www.w3.org/2000/svg">
<path d="M24.8946 25.2696L19.2022 19.6552M19.2022 19.6552C20.1759 18.6949 20.9483 17.5548 21.4753 16.3C22.0022 15.0452 22.2734 13.7004 22.2734 12.3422C22.2734 10.984 22.0022 9.63919 21.4753 8.38441C20.9483 7.12964 20.1759 5.98952 19.2022 5.02916C18.2285 4.0688 17.0726 3.307 15.8004 2.78725C14.5282 2.26751 13.1646 2 11.7876 2C10.4106 2 9.04704 2.26751 7.77484 2.78725C6.50264 3.307 5.34669 4.0688 4.37299 5.02916C2.40651 6.9687 1.30176 9.59928 1.30176 12.3422C1.30176 15.0851 2.40651 17.7157 4.37299 19.6552C6.33947 21.5948 9.00658 22.6844 11.7876 22.6844C14.5686 22.6844 17.2357 21.5948 19.2022 19.6552Z" stroke="white" stroke-width="2.08172" stroke-linecap="round" stroke-linejoin="round"/>
</svg>
