<svg width="12" height="12" viewBox="0 0 12 12" fill="none" xmlns="http://www.w3.org/2000/svg">
<path d="M11.7143 10.7858L9.11717 8.18755C9.89587 7.17281 10.2594 5.89986 10.1341 4.62692C10.0087 3.35399 9.4039 2.17639 8.44225 1.33301C7.48059 0.48963 6.23414 0.0436228 4.95573 0.085462C3.67733 0.127301 2.4627 0.653854 1.55825 1.55831C0.653793 2.46276 0.12724 3.67739 0.085401 4.95579C0.0435618 6.2342 0.489569 7.48065 1.33295 8.44231C2.17633 9.40396 3.35393 10.0088 4.62686 10.1341C5.89979 10.2595 7.17274 9.89593 8.18749 9.11724L10.7868 11.7171C10.8478 11.7781 10.9203 11.8265 11.0001 11.8596C11.0798 11.8926 11.1653 11.9096 11.2516 11.9096C11.338 11.9096 11.4234 11.8926 11.5032 11.8596C11.583 11.8265 11.6554 11.7781 11.7165 11.7171C11.7775 11.656 11.8259 11.5836 11.859 11.5038C11.892 11.424 11.909 11.3386 11.909 11.2522C11.909 11.1659 11.892 11.0804 11.859 11.0007C11.8259 10.9209 11.7775 10.8484 11.7165 10.7874L11.7143 10.7858ZM1.40624 5.12505C1.40624 4.38955 1.62434 3.67057 2.03296 3.05902C2.44158 2.44748 3.02237 1.97083 3.70188 1.68937C4.3814 1.40791 5.12911 1.33426 5.85048 1.47775C6.57185 1.62124 7.23446 1.97542 7.75454 2.49549C8.27462 3.01557 8.62879 3.67819 8.77228 4.39956C8.91577 5.12092 8.84213 5.86864 8.56066 6.54815C8.2792 7.22766 7.80256 7.80845 7.19101 8.21708C6.57947 8.6257 5.86049 8.8438 5.12499 8.8438C4.13902 8.84278 3.19373 8.45066 2.49655 7.75348C1.79937 7.0563 1.40725 6.11101 1.40624 5.12505Z" fill="#1F1F1F"/>
</svg>
