<svg width="22" height="26" viewBox="0 0 22 26" fill="none" xmlns="http://www.w3.org/2000/svg">
<path d="M4.88014 8.91492L4.16174 8.19651C3.85755 7.89232 3.85755 7.40044 4.16174 7.09949L10.4494 0.808587C10.7536 0.504397 11.2455 0.504397 11.5464 0.808587L17.8341 7.09625C18.1383 7.40044 18.1383 7.89232 17.8341 8.19328L17.1157 8.91168C16.8083 9.21911 16.3067 9.21263 16.0057 8.89874L12.294 5.00252L12.2616 16.3724C12.2616 16.8028 11.9153 17.1491 11.4849 17.1491H10.4494C10.019 17.1491 9.67275 16.8028 9.67275 16.3724L9.70511 5.00252L5.99011 8.90197C5.68916 9.21911 5.18757 9.22558 4.88014 8.91492Z" fill="white"/>
<path fill-rule="evenodd" clip-rule="evenodd" d="M0.620117 13.1726V22.451V25.102H3.2711H18.5142H21.1652V22.451V13.1726H18.5142V22.451H3.2711V13.1726H0.620117Z" fill="white"/>
</svg>
