<svg width="17" height="22" viewBox="0 0 17 22" fill="none" xmlns="http://www.w3.org/2000/svg">
<path d="M12.4371 8.10992H14.2434C14.7224 8.10992 15.1818 8.30022 15.5206 8.63896C15.8593 8.9777 16.0496 9.43713 16.0496 9.91617V18.5862C16.0496 19.0652 15.8593 19.5246 15.5206 19.8634C15.1818 20.2021 14.7224 20.3924 14.2434 20.3924H3.40586C2.92681 20.3924 2.46739 20.2021 2.12865 19.8634C1.78991 19.5246 1.59961 19.0652 1.59961 18.5862V9.91617C1.59961 9.43713 1.78991 8.9777 2.12865 8.63896C2.46739 8.30022 2.92681 8.10992 3.40586 8.10992H5.21211M12.4371 5.21992L8.82461 1.60742M8.82461 1.60742L5.21211 5.21992M8.82461 1.60742V13.9351" stroke="#1F1F1F" stroke-width="1.445" stroke-linecap="round" stroke-linejoin="round"/>
</svg>
