<svg width="22" height="20" viewBox="0 0 22 20" fill="none" xmlns="http://www.w3.org/2000/svg">
<path d="M9.24792 2.82702C9.69788 2.82698 10.1434 2.90458 10.5591 3.0554C10.9748 3.20623 11.3526 3.42731 11.6707 3.70602L19.0748 10.191C19.3929 10.4696 19.6453 10.8003 19.8174 11.1644C19.9896 11.5284 20.0782 11.9185 20.0782 12.3125C20.0782 12.7065 19.9896 13.0967 19.8174 13.4607C19.6453 13.8247 19.3929 14.1554 19.0748 14.434L14.2304 18.676C13.5881 19.2384 12.7171 19.5544 11.8088 19.5544C10.9006 19.5544 10.0295 19.2384 9.38721 18.676L1.98193 12.191C1.33996 11.6284 0.979383 10.8655 0.979492 10.07V5.32702C0.979492 4.66398 1.28022 4.0281 1.81551 3.55926C2.3508 3.09042 3.07681 2.82702 3.83382 2.82702H9.24792ZM8.57886 7.36302C8.42208 7.21565 8.233 7.09745 8.02293 7.01546C7.81285 6.93348 7.58607 6.88939 7.35612 6.88584C7.12617 6.88229 6.89775 6.91934 6.68451 6.99478C6.47126 7.07022 6.27754 7.18251 6.11492 7.32495C5.95229 7.46738 5.82409 7.63705 5.73795 7.82383C5.65182 8.0106 5.60952 8.21066 5.61357 8.41207C5.61763 8.61348 5.66796 8.8121 5.76157 8.9961C5.85517 9.1801 5.99013 9.3457 6.15839 9.48302C6.48304 9.74798 6.91244 9.89223 7.35612 9.88537C7.7998 9.87852 8.22312 9.72109 8.5369 9.44627C8.85067 9.17144 9.03041 8.80067 9.03824 8.41207C9.04607 8.02347 8.88138 7.64737 8.57886 7.36302ZM10.8623 -0.000976492C11.6927 -0.00113456 12.4948 0.262907 13.1195 0.742024L13.2851 0.877024L21.4964 8.07002C21.7012 8.24998 21.8201 8.49146 21.8289 8.74541C21.8378 8.99936 21.7359 9.24674 21.5441 9.4373C21.3522 9.62787 21.0848 9.74733 20.796 9.77142C20.5072 9.79552 20.2188 9.72244 19.9893 9.56702L19.882 9.48402L11.6707 2.29002C11.4931 2.1346 11.2619 2.03479 11.013 2.00602L10.8623 2.00002H5.55099C5.25821 2.00205 4.97573 1.90548 4.76193 1.73028C4.54813 1.55508 4.41934 1.31463 4.40219 1.05863C4.38504 0.802628 4.48084 0.550639 4.66978 0.354739C4.85872 0.158838 5.12636 0.0340004 5.41741 0.0060236L5.55099 2.35551e-05H10.8623V-0.000976492Z" fill="#40A0FB"/>
</svg>
