<svg width="666" height="72" viewBox="0 0 666 72" fill="none" xmlns="http://www.w3.org/2000/svg">
<g filter="url(#filter0_d_460_5134)">
<path d="M55.4683 5.2483H31.1083V65.1499H27.6739V5.2483H3.23409V2.05354H55.4683V5.2483ZM112.015 65.1499L95.6423 40.3906C93.6722 40.71 91.5157 40.8698 89.1729 40.8698H70.4836V65.1499H67.0493V2.05354H89.1729C94.391 2.05354 98.8903 2.85223 102.671 4.44961C106.504 6.04698 109.406 8.30993 111.376 11.2385C113.4 14.1137 114.411 17.5215 114.411 21.4617C114.411 25.9876 113.08 29.8479 110.418 33.0426C107.809 36.1841 104.055 38.3938 99.1565 39.6717L116.089 65.1499H112.015ZM88.534 37.675C95.5624 37.675 101.047 36.2906 104.987 33.5219C108.98 30.6998 110.977 26.6798 110.977 21.4617C110.977 16.2436 108.98 12.2501 104.987 9.48135C101.047 6.65931 95.5624 5.2483 88.534 5.2483H70.4836V37.675H88.534ZM169.025 46.7801H133.883L126.055 65.1499H122.302L149.377 2.05354H153.45L180.526 65.1499H176.852L169.025 46.7801ZM167.587 43.5853L151.454 5.80738L135.32 43.5853H167.587ZM234.94 2.05354L206.747 65.1499H202.993L174.799 2.05354H178.553L204.91 61.2363L231.266 2.05354H234.94ZM245.35 2.05354H288.399V5.2483H248.784V31.3654H285.604V34.5601H248.784V61.9551H289.118V65.1499H245.35V2.05354ZM304.864 2.05354V61.9551H342.083V65.1499H301.43V2.05354H304.864ZM397.886 0.615909C402.359 0.615909 406.406 1.36135 410.026 2.85223C413.647 4.34312 416.522 6.44633 418.652 9.16187C420.835 11.8242 422.06 14.8326 422.326 18.187H418.892C418.626 15.578 417.587 13.1819 415.777 10.9989C414.02 8.81577 411.597 7.08528 408.509 5.80738C405.421 4.47623 401.88 3.81066 397.886 3.81066C393.786 3.81066 390.246 4.36974 387.264 5.4879C384.282 6.55282 381.993 8.0437 380.395 9.96056C378.851 11.8242 378.079 13.9806 378.079 16.4299C378.079 19.039 378.798 21.2487 380.235 23.059C381.726 24.8162 383.963 26.3337 386.944 27.6116C389.979 28.8895 393.973 30.0875 398.925 31.2057C407.284 33.0693 413.301 35.3855 416.975 38.1542C420.702 40.923 422.566 44.6236 422.566 49.256C422.566 52.717 421.474 55.752 419.291 58.361C417.108 60.9701 414.126 62.9668 410.346 64.3512C406.619 65.7888 402.439 66.5077 397.807 66.5077C393.174 66.5077 389.021 65.709 385.347 64.1116C381.673 62.5675 378.718 60.3578 376.482 57.4825C374.298 54.6072 373.047 51.3326 372.728 47.6586H376.162C376.482 50.6936 377.546 53.4092 379.357 55.8052C381.22 58.1481 383.75 59.985 386.944 61.3162C390.139 62.6473 393.786 63.3129 397.886 63.3129C401.986 63.3129 405.634 62.7272 408.828 61.5558C412.076 60.3844 414.606 58.7604 416.416 56.6838C418.226 54.6072 419.132 52.2378 419.132 49.5755C419.132 46.7535 418.333 44.4373 416.735 42.6269C415.191 40.7633 412.822 39.1659 409.627 37.8348C406.432 36.5036 402.066 35.1991 396.529 33.9212C388.914 32.1641 383.35 29.9544 379.836 27.2921C376.375 24.6298 374.645 21.0091 374.645 16.4299C374.645 13.2352 375.603 10.4398 377.52 8.04371C379.49 5.64764 382.232 3.81066 385.746 2.53276C389.261 1.25486 393.307 0.615909 397.886 0.615909ZM434.96 2.05354H455.806C461.184 2.05354 465.816 2.90548 469.703 4.60934C473.644 6.31321 476.625 8.7359 478.649 11.8774C480.725 14.9657 481.764 18.613 481.764 22.8194C481.764 27.0259 480.725 30.6998 478.649 33.8413C476.625 36.9296 473.644 39.3257 469.703 41.0295C465.816 42.7334 461.184 43.5853 455.806 43.5853H438.395V65.1499H434.96V2.05354ZM455.167 40.3906C462.462 40.3906 468.133 38.8997 472.179 35.9179C476.279 32.8829 478.329 28.5167 478.329 22.8194C478.329 17.1221 476.279 12.7826 472.179 9.80082C468.133 6.7658 462.462 5.2483 455.167 5.2483H438.395V40.3906H455.167ZM527.42 46.7801H492.278L484.451 65.1499H480.697L507.773 2.05354H511.846L538.922 65.1499H535.248L527.42 46.7801ZM525.983 43.5853L509.849 5.80738L493.716 43.5853H525.983ZM575.743 66.5077C569.566 66.5077 564.002 65.07 559.05 62.1948C554.099 59.3727 550.212 55.4591 547.39 50.454C544.621 45.4489 543.236 39.8315 543.236 33.6017C543.236 27.372 544.621 21.7545 547.39 16.7494C550.212 11.7443 554.072 7.83072 558.971 5.00869C563.922 2.13341 569.487 0.695776 575.663 0.695776C583.277 0.695776 589.72 2.66587 594.991 6.60607C600.316 10.493 603.99 15.7644 606.013 22.4201H602.419C600.556 16.6695 597.308 12.1436 592.675 8.84239C588.043 5.54115 582.372 3.89053 575.663 3.89053C570.126 3.89053 565.147 5.16843 560.728 7.72423C556.308 10.2268 552.847 13.741 550.345 18.2669C547.895 22.7928 546.671 27.9044 546.671 33.6017C546.671 39.299 547.922 44.4106 550.425 48.9365C552.927 53.4092 556.388 56.9234 560.807 59.4792C565.227 62.035 570.205 63.3129 575.743 63.3129C582.665 63.3129 588.522 61.5558 593.314 58.0416C598.159 54.5273 601.407 49.8151 603.058 43.9048H606.652C605.481 48.4307 603.457 52.3975 600.582 55.8052C597.76 59.213 594.219 61.8487 589.96 63.7123C585.7 65.5759 580.961 66.5077 575.743 66.5077ZM619.267 2.05354H662.316V5.2483H622.701V31.3654H659.521V34.5601H622.701V61.9551H663.035V65.1499H619.267V2.05354Z" fill="white"/>
</g>
<defs>
<filter id="filter0_d_460_5134" x="0.776874" y="0.616211" width="664.716" height="70.8066" filterUnits="userSpaceOnUse" color-interpolation-filters="sRGB">
<feFlood flood-opacity="0" result="BackgroundImageFix"/>
<feColorMatrix in="SourceAlpha" type="matrix" values="0 0 0 0 0 0 0 0 0 0 0 0 0 0 0 0 0 0 127 0" result="hardAlpha"/>
<feOffset dy="2.4575"/>
<feGaussianBlur stdDeviation="1.22875"/>
<feComposite in2="hardAlpha" operator="out"/>
<feColorMatrix type="matrix" values="0 0 0 0 0 0 0 0 0 0 0 0 0 0 0 0 0 0 0.25 0"/>
<feBlend mode="normal" in2="BackgroundImageFix" result="effect1_dropShadow_460_5134"/>
<feBlend mode="normal" in="SourceGraphic" in2="effect1_dropShadow_460_5134" result="shape"/>
</filter>
</defs>
</svg>
