<svg width="15" height="15" viewBox="0 0 15 15" fill="none" xmlns="http://www.w3.org/2000/svg">
<g clip-path="url(#clip0_460_9188)">
<path fill-rule="evenodd" clip-rule="evenodd" d="M3.515 2.76498C2.47812 3.23873 1.71875 4.36623 1.71875 5.71061C1.71875 7.08373 2.28125 8.14248 3.08625 9.04998C3.75063 9.79748 4.55438 10.4175 5.33813 11.0212C5.52438 11.165 5.70937 11.3081 5.89125 11.4512C6.22 11.7106 6.51312 11.9375 6.79625 12.1031C7.07875 12.2681 7.30625 12.3437 7.5 12.3437C7.69375 12.3437 7.92125 12.2687 8.20375 12.1031C8.48688 11.9375 8.78 11.7106 9.10875 11.4512C9.29 11.3075 9.47563 11.165 9.66187 11.0212C10.4456 10.4175 11.2494 9.79748 11.9137 9.04998C12.7194 8.14248 13.2812 7.08373 13.2812 5.71061C13.2812 4.36686 12.5219 3.23873 11.485 2.76498C10.4775 2.30436 9.12375 2.42623 7.8375 3.76311C7.79377 3.80847 7.74135 3.84456 7.68336 3.86921C7.62537 3.89385 7.56301 3.90656 7.5 3.90656C7.43699 3.90656 7.37463 3.89385 7.31664 3.86921C7.25865 3.84456 7.20623 3.80847 7.1625 3.76311C5.87625 2.42623 4.5225 2.30436 3.515 2.76498ZM7.5 2.78748C6.055 1.49373 4.43687 1.31248 3.125 1.91186C1.74125 2.54623 0.78125 4.01623 0.78125 5.71123C0.78125 7.37686 1.475 8.64811 2.38562 9.67311C3.11437 10.4937 4.00625 11.1806 4.79437 11.7869C4.97312 11.9244 5.14625 12.0581 5.31063 12.1881C5.63125 12.4406 5.975 12.7094 6.32312 12.9131C6.67125 13.1162 7.06875 13.2819 7.5 13.2819C7.93125 13.2819 8.32875 13.1162 8.67688 12.9131C9.02563 12.7094 9.36875 12.4406 9.68937 12.1881C9.86057 12.0532 10.0327 11.9195 10.2056 11.7869C10.9931 11.1806 11.8856 10.4931 12.6144 9.67311C13.525 8.64811 14.2188 7.37686 14.2188 5.71123C14.2188 4.01623 13.2594 2.54623 11.875 1.91311C10.5631 1.31311 8.945 1.49436 7.5 2.78748Z" fill="white"/>
<path d="M1.25 5.71062C1.25 8.74999 3.7625 10.3694 5.60125 11.8194C6.25 12.3306 6.875 12.8125 7.5 12.8125C8.125 12.8125 8.75 12.3312 9.39875 11.8187C11.2381 10.37 13.75 8.74999 13.75 5.71124C13.75 2.67187 10.3125 0.516243 7.5 3.43874C4.6875 0.515618 1.25 2.67124 1.25 5.71062Z" fill="white"/>
</g>
<defs>
<clipPath id="clip0_460_9188">
<rect width="15" height="15" fill="white"/>
</clipPath>
</defs>
</svg>
