<svg width="14" height="14" viewBox="0 0 14 14" fill="none" xmlns="http://www.w3.org/2000/svg">
<path d="M13.7231 1.225C13.7069 1.14922 13.669 1.07975 13.6142 1.02495C13.5594 0.970143 13.4899 0.932333 13.4141 0.916061C12.5985 0.741333 11.9604 0.741333 11.3246 0.741333C8.71056 0.741333 7.14263 2.13916 5.97264 3.98267H3.33324C3.10783 3.98286 2.88691 4.04569 2.69515 4.16414C2.5034 4.2826 2.34835 4.45202 2.24734 4.65347L0.995528 7.15538C0.949299 7.24806 0.927528 7.35101 0.932281 7.45447C0.937034 7.55793 0.968154 7.65845 1.02269 7.74651C1.07722 7.83456 1.15336 7.90722 1.24387 7.9576C1.33439 8.00797 1.43628 8.03439 1.53987 8.03433H4.16837L3.59921 8.60334C3.44723 8.7553 3.36186 8.96139 3.36186 9.17627C3.36186 9.39116 3.44723 9.59724 3.59921 9.7492L4.88851 11.0384C4.96378 11.1137 5.05314 11.1734 5.1515 11.2141C5.24985 11.2548 5.35527 11.2758 5.46173 11.2758C5.56819 11.2758 5.67361 11.2548 5.77196 11.2141C5.87031 11.1734 5.95968 11.1137 6.03495 11.0384L6.60411 10.4694V13.0989C6.60408 13.2024 6.63051 13.3043 6.68088 13.3947C6.73126 13.4852 6.80391 13.5613 6.89196 13.6158C6.98 13.6703 7.08051 13.7014 7.18396 13.7062C7.28741 13.711 7.39037 13.6893 7.48307 13.6431L9.98315 12.3924C10.185 12.2916 10.3547 12.1366 10.4733 11.9447C10.5919 11.7528 10.6546 11.5316 10.6544 11.3061V8.66209C12.4931 7.48964 13.8966 5.91708 13.8966 3.31667C13.8992 2.67854 13.8992 2.0404 13.7231 1.225ZM10.6569 4.99558C10.4565 4.99558 10.2606 4.93618 10.094 4.82488C9.9274 4.71358 9.79754 4.55538 9.72085 4.37029C9.64416 4.18521 9.6241 3.98154 9.66319 3.78506C9.70229 3.58857 9.79879 3.40809 9.94048 3.26643C10.0822 3.12477 10.2627 3.0283 10.4593 2.98921C10.6558 2.95013 10.8595 2.97019 11.0447 3.04685C11.2298 3.12352 11.388 3.25335 11.4994 3.41992C11.6107 3.58649 11.6701 3.78233 11.6701 3.98267C11.6701 4.25131 11.5634 4.50895 11.3734 4.69891C11.1834 4.88887 10.9256 4.99558 10.6569 4.99558Z" fill="white"/>
</svg>
